<svg width="25" height="25" viewBox="0 0 25 25" fill="none" xmlns="http://www.w3.org/2000/svg">
<g clip-path="url(#clip0_252_3514)">
<path d="M24.1602 12.5C24.1602 5.87262 18.7875 0.5 12.1602 0.5C5.53278 0.5 0.160156 5.87262 0.160156 12.5C0.160156 18.4895 4.54841 23.454 10.2852 24.3542V15.9688H7.23828V12.5H10.2852V9.85625C10.2852 6.84875 12.0767 5.1875 14.8178 5.1875C16.1307 5.1875 17.5039 5.42188 17.5039 5.42188V8.375H15.9908C14.5001 8.375 14.0352 9.30003 14.0352 10.2491V12.5H17.3633L16.8312 15.9688H14.0352V24.3542C19.7719 23.454 24.1602 18.4896 24.1602 12.5Z" fill="#1877F2"/>
<path d="M16.8312 15.9688L17.3633 12.5H14.0352V10.2491C14.0352 9.29994 14.5001 8.375 15.9908 8.375H17.5039V5.42188C17.5039 5.42188 16.1307 5.1875 14.8177 5.1875C12.0767 5.1875 10.2852 6.84875 10.2852 9.85625V12.5H7.23828V15.9688H10.2852V24.3542C10.9054 24.4514 11.5323 24.5001 12.1602 24.5C12.788 24.5001 13.4149 24.4514 14.0352 24.3542V15.9688H16.8312Z" fill="white"/>
</g>
<defs>
<clipPath id="clip0_252_3514">
<rect width="24" height="24" fill="white" transform="translate(0.160156 0.5)"/>
</clipPath>
</defs>
</svg>
