<svg width="25" height="25" viewBox="0 0 25 25" fill="none" xmlns="http://www.w3.org/2000/svg">
<g clip-path="url(#clip0_252_3517)">
<path d="M18.5352 0.5H5.78516C2.67855 0.5 0.160156 3.0184 0.160156 6.125V18.875C0.160156 21.9816 2.67855 24.5 5.78516 24.5H18.5352C21.6418 24.5 24.1602 21.9816 24.1602 18.875V6.125C24.1602 3.0184 21.6418 0.5 18.5352 0.5Z" fill="url(#paint0_radial_252_3517)"/>
<path d="M18.5352 0.5H5.78516C2.67855 0.5 0.160156 3.0184 0.160156 6.125V18.875C0.160156 21.9816 2.67855 24.5 5.78516 24.5H18.5352C21.6418 24.5 24.1602 21.9816 24.1602 18.875V6.125C24.1602 3.0184 21.6418 0.5 18.5352 0.5Z" fill="url(#paint1_radial_252_3517)"/>
<path d="M12.161 3.125C9.61494 3.125 9.29534 3.13616 8.29541 3.18163C7.29734 3.22738 6.61606 3.38534 6.02 3.61719C5.40331 3.85662 4.88028 4.17697 4.35922 4.69822C3.83769 5.21937 3.51734 5.74241 3.27716 6.35881C3.04466 6.95506 2.8865 7.63662 2.84159 8.63422C2.79687 9.63425 2.78516 9.95394 2.78516 12.5001C2.78516 15.0463 2.79641 15.3648 2.84178 16.3647C2.88772 17.3628 3.04569 18.0441 3.27734 18.6402C3.51697 19.2568 3.83731 19.7799 4.35856 20.3009C4.87953 20.8225 5.40256 21.1436 6.01878 21.383C6.61531 21.6148 7.29669 21.7728 8.29456 21.8186C9.29459 21.864 9.61391 21.8752 12.1599 21.8752C14.7062 21.8752 15.0248 21.864 16.0247 21.8186C17.0228 21.7728 17.7048 21.6148 18.3013 21.383C18.9177 21.1436 19.44 20.8225 19.9609 20.3009C20.4824 19.7799 20.8027 19.2568 21.043 18.6404C21.2734 18.0441 21.4317 17.3626 21.4785 16.3649C21.5234 15.365 21.5352 15.0463 21.5352 12.5001C21.5352 9.95394 21.5234 9.63444 21.4785 8.63441C21.4317 7.63634 21.2734 6.95516 21.043 6.35909C20.8027 5.74241 20.4824 5.21937 19.9609 4.69822C19.4395 4.17678 18.9179 3.85644 18.3008 3.61728C17.7031 3.38534 17.0215 3.22728 16.0234 3.18163C15.0234 3.13616 14.705 3.125 12.1581 3.125H12.161ZM11.32 4.81447C11.5696 4.81409 11.8482 4.81447 12.161 4.81447C14.6642 4.81447 14.9608 4.82347 15.9493 4.86838C16.8634 4.91019 17.3595 5.06291 17.69 5.19125C18.1275 5.36112 18.4394 5.56428 18.7674 5.8925C19.0955 6.22062 19.2986 6.53309 19.4689 6.97062C19.5972 7.30062 19.7502 7.79675 19.7918 8.71081C19.8367 9.69913 19.8464 9.99594 19.8464 12.4979C19.8464 14.9999 19.8367 15.2968 19.7918 16.2851C19.75 17.1991 19.5972 17.6952 19.4689 18.0253C19.299 18.4629 19.0955 18.7744 18.7674 19.1023C18.4393 19.4305 18.1277 19.6335 17.69 19.8035C17.3599 19.9324 16.8634 20.0848 15.9493 20.1266C14.961 20.1715 14.6642 20.1812 12.161 20.1812C9.65769 20.1812 9.36097 20.1715 8.37275 20.1266C7.45869 20.0844 6.96256 19.9317 6.63181 19.8033C6.19437 19.6333 5.88181 19.4303 5.55369 19.1022C5.22556 18.774 5.0225 18.4623 4.85216 18.0246C4.72381 17.6945 4.57091 17.1984 4.52928 16.2843C4.48438 15.296 4.47537 14.9992 4.47537 12.4956C4.47537 9.992 4.48438 9.69678 4.52928 8.70847C4.57109 7.79441 4.72381 7.29828 4.85216 6.96781C5.02213 6.53028 5.22556 6.21781 5.55378 5.88969C5.882 5.56156 6.19437 5.35841 6.63191 5.18816C6.96237 5.05925 7.45869 4.90691 8.37275 4.86491C9.23759 4.82581 9.57275 4.81409 11.32 4.81212V4.81447ZM17.1654 6.37109C16.5443 6.37109 16.0404 6.87453 16.0404 7.49572C16.0404 8.11681 16.5443 8.62072 17.1654 8.62072C17.7865 8.62072 18.2904 8.11681 18.2904 7.49572C18.2904 6.87463 17.7865 6.37072 17.1654 6.37072V6.37109ZM12.161 7.68556C9.50225 7.68556 7.34656 9.84125 7.34656 12.5001C7.34656 15.1589 9.50225 17.3136 12.161 17.3136C14.8198 17.3136 16.9748 15.1589 16.9748 12.5001C16.9748 9.84134 14.8197 7.68556 12.1608 7.68556H12.161ZM12.161 9.37503C13.8868 9.37503 15.2861 10.7741 15.2861 12.5001C15.2861 14.2259 13.8868 15.6252 12.161 15.6252C10.4352 15.6252 9.03603 14.2259 9.03603 12.5001C9.03603 10.7741 10.4351 9.37503 12.161 9.37503Z" fill="white"/>
</g>
<defs>
<radialGradient id="paint0_radial_252_3517" cx="0" cy="0" r="1" gradientUnits="userSpaceOnUse" gradientTransform="translate(6.53516 26.3485) rotate(-90) scale(23.7858 22.1227)">
<stop stop-color="#FFDD55"/>
<stop offset="0.1" stop-color="#FFDD55"/>
<stop offset="0.5" stop-color="#FF543E"/>
<stop offset="1" stop-color="#C837AB"/>
</radialGradient>
<radialGradient id="paint1_radial_252_3517" cx="0" cy="0" r="1" gradientUnits="userSpaceOnUse" gradientTransform="translate(-3.85994 2.22884) rotate(78.681) scale(10.6324 43.827)">
<stop stop-color="#3771C8"/>
<stop offset="0.128" stop-color="#3771C8"/>
<stop offset="1" stop-color="#6600FF" stop-opacity="0"/>
</radialGradient>
<clipPath id="clip0_252_3517">
<rect width="24" height="24" fill="white" transform="translate(0.160156 0.5)"/>
</clipPath>
</defs>
</svg>
