<svg width="25" height="25" viewBox="0 0 25 25" fill="none" xmlns="http://www.w3.org/2000/svg">
<g clip-path="url(#clip0_252_3531)">
<path d="M19.3555 0.5H6.60547C3.49887 0.5 0.980469 3.0184 0.980469 6.125V18.875C0.980469 21.9816 3.49887 24.5 6.60547 24.5H19.3555C22.4621 24.5 24.9805 21.9816 24.9805 18.875V6.125C24.9805 3.0184 22.4621 0.5 19.3555 0.5Z" fill="white"/>
<path d="M19.3555 0.5H6.60547C3.49887 0.5 0.980469 3.0184 0.980469 6.125V18.875C0.980469 21.9816 3.49887 24.5 6.60547 24.5H19.3555C22.4621 24.5 24.9805 21.9816 24.9805 18.875V6.125C24.9805 3.0184 22.4621 0.5 19.3555 0.5Z" fill="#0A66C2"/>
<path d="M18.2975 20.908H21.0416C21.141 20.908 21.2364 20.8685 21.3067 20.7982C21.377 20.7279 21.4165 20.6325 21.4166 20.5331L21.418 14.7354C21.418 11.7051 20.765 9.37588 17.2238 9.37588C15.8776 9.32581 14.6082 10.0198 13.9231 11.1785C13.9198 11.1841 13.9147 11.1885 13.9086 11.191C13.9025 11.1934 13.8958 11.1938 13.8895 11.1921C13.8832 11.1904 13.8776 11.1867 13.8736 11.1815C13.8696 11.1763 13.8674 11.17 13.8673 11.1634V10.0306C13.8673 9.93117 13.8278 9.83579 13.7575 9.76546C13.6872 9.69513 13.5918 9.65563 13.4923 9.65563H10.8882C10.7888 9.65563 10.6934 9.69513 10.6231 9.76546C10.5528 9.83579 10.5132 9.93117 10.5132 10.0306V20.5325C10.5132 20.632 10.5528 20.7273 10.6231 20.7977C10.6934 20.868 10.7888 20.9075 10.8882 20.9075H13.6321C13.7316 20.9075 13.827 20.868 13.8973 20.7977C13.9676 20.7273 14.0071 20.632 14.0071 20.5325V15.3413C14.0071 13.8734 14.2856 12.4519 16.1053 12.4519C17.8993 12.4519 17.9225 14.1315 17.9225 15.4363V20.533C17.9225 20.6324 17.962 20.7278 18.0323 20.7981C18.1027 20.8685 18.198 20.908 18.2975 20.908ZM4.54297 6.09012C4.54297 7.20237 5.45863 8.11756 6.57097 8.11756C7.68303 8.11747 8.59812 7.20172 8.59812 6.08966C8.59794 4.97759 7.68275 4.0625 6.57059 4.0625C5.45816 4.0625 4.54297 4.97787 4.54297 6.09012ZM5.19537 20.908H7.94291C8.04236 20.908 8.13775 20.8685 8.20807 20.7981C8.2784 20.7278 8.31791 20.6324 8.31791 20.533V10.0306C8.31791 9.93117 8.2784 9.83579 8.20807 9.76546C8.13775 9.69513 8.04236 9.65563 7.94291 9.65563H5.19537C5.09592 9.65563 5.00054 9.69513 4.93021 9.76546C4.85988 9.83579 4.82037 9.93117 4.82037 10.0306V20.533C4.82037 20.6324 4.85988 20.7278 4.93021 20.7981C5.00054 20.8685 5.09592 20.908 5.19537 20.908Z" fill="white"/>
</g>
<defs>
<clipPath id="clip0_252_3531">
<rect width="24" height="24" fill="white" transform="translate(0.980469 0.5)"/>
</clipPath>
</defs>
</svg>
