<svg width="160" height="160" viewBox="0 0 160 160" fill="none" xmlns="http://www.w3.org/2000/svg">
<g clip-path="url(#clip0_284_6340)">
<path d="M80 0C58.7875 0 38.425 8.43375 23.4375 23.4313C8.43465 38.4348 0.00429311 58.7823 0 80C0 101.209 8.4375 121.571 23.4375 136.569C38.425 151.566 58.7875 160 80 160C101.213 160 121.575 151.566 136.562 136.569C151.562 121.571 160 101.209 160 80C160 58.7913 151.562 38.4288 136.562 23.4313C121.575 8.43375 101.213 0 80 0Z" fill="url(#paint0_linear_284_6340)"/>
<path d="M36.2136 79.1553C59.5386 68.9953 75.0886 62.2969 82.8636 59.0603C105.089 49.819 109.701 48.214 112.714 48.1597C113.376 48.149 114.851 48.3128 115.814 49.0909C116.614 49.7472 116.839 50.6347 116.951 51.2578C117.051 51.8803 117.189 53.299 117.076 54.4065C115.876 67.0565 110.664 97.754 108.014 111.923C106.901 117.918 104.689 119.928 102.551 120.124C97.9011 120.552 94.3761 117.054 89.8761 114.105C82.8386 109.489 78.8636 106.617 72.0261 102.113C64.1261 96.9078 69.2511 94.0465 73.7511 89.3715C74.9261 88.1478 95.4011 69.529 95.7886 67.8403C95.8386 67.629 95.8886 66.8415 95.4136 66.4265C94.9511 66.0103 94.2636 66.1528 93.7636 66.2653C93.0511 66.4253 81.8136 73.8603 60.0136 88.569C56.8261 90.7615 53.9386 91.8303 51.3386 91.774C48.4886 91.7128 42.9886 90.159 38.9011 88.8315C33.9011 87.2028 29.9136 86.3415 30.2636 83.5753C30.4386 82.1353 32.4261 80.6615 36.2136 79.1553Z" fill="white"/>
</g>
<defs>
<linearGradient id="paint0_linear_284_6340" x1="8000" y1="0" x2="8000" y2="16000" gradientUnits="userSpaceOnUse">
<stop stop-color="#2AABEE"/>
<stop offset="1" stop-color="#229ED9"/>
</linearGradient>
<clipPath id="clip0_284_6340">
<rect width="160" height="160" fill="white"/>
</clipPath>
</defs>
</svg>
