<svg width="25" height="25" viewBox="0 0 25 25" fill="none" xmlns="http://www.w3.org/2000/svg">
<g clip-path="url(#clip0_252_3536)">
<path d="M12.9805 0.5C9.79859 0.5 6.74422 1.76506 4.49609 4.01469C2.24567 6.26522 0.981113 9.31734 0.980469 12.5C0.980469 15.6813 2.24609 18.7357 4.49609 20.9853C6.74422 23.2349 9.79859 24.5 12.9805 24.5C16.1623 24.5 19.2167 23.2349 21.4648 20.9853C23.7148 18.7357 24.9805 15.6813 24.9805 12.5C24.9805 9.31869 23.7148 6.26431 21.4648 4.01469C19.2167 1.76506 16.1623 0.5 12.9805 0.5Z" fill="url(#paint0_linear_252_3536)"/>
<path d="M6.41134 12.3733C9.91009 10.8493 12.2426 9.84454 13.4088 9.35904C16.7426 7.97285 17.4345 7.7321 17.8863 7.72395C17.9857 7.72235 18.207 7.74692 18.3513 7.86364C18.4713 7.96207 18.5051 8.0952 18.522 8.18867C18.537 8.28204 18.5576 8.49485 18.5407 8.66098C18.3607 10.5585 17.5788 15.1631 17.1813 17.2884C17.0145 18.1877 16.6826 18.4892 16.362 18.5186C15.6645 18.5827 15.1357 18.0581 14.4607 17.6158C13.4051 16.9234 12.8088 16.4925 11.7832 15.8169C10.5982 15.0362 11.367 14.607 12.042 13.9057C12.2182 13.7222 15.2895 10.9294 15.3476 10.676C15.3551 10.6444 15.3626 10.5262 15.2913 10.464C15.222 10.4015 15.1188 10.4229 15.0438 10.4398C14.937 10.4638 13.2513 11.579 9.98134 13.7854C9.50321 14.1142 9.07009 14.2745 8.68009 14.2661C8.25259 14.2569 7.42759 14.0239 6.81446 13.8247C6.06446 13.5804 5.46634 13.4512 5.51884 13.0363C5.54509 12.8203 5.84321 12.5992 6.41134 12.3733Z" fill="white"/>
</g>
<defs>
<linearGradient id="paint0_linear_252_3536" x1="1200.98" y1="0.5" x2="1200.98" y2="2400.5" gradientUnits="userSpaceOnUse">
<stop stop-color="#2AABEE"/>
<stop offset="1" stop-color="#229ED9"/>
</linearGradient>
<clipPath id="clip0_252_3536">
<rect width="24" height="24" fill="white" transform="translate(0.980469 0.5)"/>
</clipPath>
</defs>
</svg>
