<svg width="25" height="25" viewBox="0 0 25 25" fill="none" xmlns="http://www.w3.org/2000/svg">
<g clip-path="url(#clip0_252_3522)">
<path d="M18.5352 0.5H5.78516C2.67855 0.5 0.160156 3.0184 0.160156 6.125V18.875C0.160156 21.9816 2.67855 24.5 5.78516 24.5H18.5352C21.6418 24.5 24.1602 21.9816 24.1602 18.875V6.125C24.1602 3.0184 21.6418 0.5 18.5352 0.5Z" fill="white"/>
<path d="M18.5352 0.5H5.78516C2.67855 0.5 0.160156 3.0184 0.160156 6.125V18.875C0.160156 21.9816 2.67855 24.5 5.78516 24.5H18.5352C21.6418 24.5 24.1602 21.9816 24.1602 18.875V6.125C24.1602 3.0184 21.6418 0.5 18.5352 0.5Z" fill="#1D9BF0"/>
<path d="M18.87 9.06978C18.8803 9.21856 18.8803 9.36734 18.8803 9.51753C18.8803 14.0922 15.3977 19.3683 9.02956 19.3683V19.3655C7.1483 19.3682 5.306 18.8294 3.72266 17.8135C3.99634 17.8463 4.27103 17.8629 4.54672 17.8634C6.10597 17.8647 7.62038 17.3417 8.84656 16.3785C8.12412 16.3648 7.42401 16.1257 6.8441 15.6947C6.26418 15.2636 5.83344 14.6621 5.61209 13.9743C6.13079 14.0744 6.66553 14.054 7.17509 13.9147C5.55997 13.5883 4.39794 12.1692 4.39794 10.5211V10.4772C4.87942 10.7454 5.41829 10.8941 5.96919 10.9106C4.448 9.89384 3.97906 7.87006 4.89763 6.28775C5.76675 7.3574 6.85121 8.23223 8.08052 8.85539C9.30983 9.47855 10.6565 9.8361 12.033 9.90481C11.8958 9.31403 11.9161 8.69758 12.0918 8.11709C12.2676 7.53661 12.5927 7.01245 13.0346 6.59703C14.429 5.28621 16.6221 5.35343 17.9329 6.74712C18.7082 6.59406 19.4517 6.30982 20.1314 5.90665C19.873 6.70828 19.3321 7.38873 18.6095 7.8214C19.2958 7.74047 19.966 7.55676 20.5977 7.27643C20.1331 7.97227 19.548 8.57951 18.87 9.06978Z" fill="white"/>
</g>
<defs>
<clipPath id="clip0_252_3522">
<rect width="24" height="24" fill="white" transform="translate(0.160156 0.5)"/>
</clipPath>
</defs>
</svg>
