<svg width="24" height="25" viewBox="0 0 24 25" fill="none" xmlns="http://www.w3.org/2000/svg">
<g clip-path="url(#clip0_252_3527)">
<path d="M0.670033 12.3563C0.669475 14.3728 1.19636 16.3417 2.19822 18.0771L0.574219 24.0066L6.64231 22.4156C8.32067 23.3292 10.2011 23.808 12.1121 23.8081H12.1171C18.4255 23.8081 23.5606 18.6748 23.5633 12.3653C23.5645 9.30792 22.375 6.43295 20.2137 4.26997C18.0527 2.10718 15.1788 0.915458 12.1166 0.914062C5.80752 0.914062 0.67273 6.04709 0.670126 12.3563" fill="url(#paint0_linear_252_3527)"/>
<path d="M0.263597 12.3527C0.262946 14.4417 0.808714 16.481 1.84629 18.2786L0.164062 24.4207L6.44974 22.7726C8.18164 23.7168 10.1316 24.2147 12.1158 24.2154H12.1209C18.6556 24.2154 23.9752 18.8975 23.978 12.3621C23.9791 9.19488 22.7468 6.21656 20.5082 3.97609C18.2695 1.73591 15.2927 0.501302 12.1209 0.5C5.58508 0.5 0.266202 5.81721 0.263597 12.3527ZM4.00695 17.969L3.77225 17.5965C2.78564 16.0277 2.2649 14.2149 2.26564 12.3534C2.26769 6.9213 6.68853 2.50186 12.1246 2.50186C14.7572 2.50298 17.2312 3.52921 19.0921 5.39116C20.9528 7.2533 21.9767 9.72865 21.9761 12.3614C21.9736 17.7935 17.5527 22.2135 12.1209 22.2135H12.117C10.3483 22.2126 8.61374 21.7376 7.10099 20.84L6.74099 20.6265L3.01095 21.6045L4.00695 17.969Z" fill="url(#paint1_linear_252_3527)"/>
<path d="M9.15515 7.39746C8.93319 6.90416 8.69961 6.89421 8.48854 6.88556C8.3157 6.87811 8.11812 6.87867 7.92073 6.87867C7.72314 6.87867 7.40212 6.953 7.13077 7.24928C6.85915 7.54583 6.09375 8.26249 6.09375 9.72007C6.09375 11.1776 7.15542 12.5864 7.30342 12.7843C7.45161 12.9817 9.35301 16.0686 12.3644 17.2562C14.8671 18.243 15.3764 18.0468 15.9195 17.9973C16.4628 17.948 17.6724 17.2808 17.9192 16.589C18.1662 15.8973 18.1662 15.3043 18.0922 15.1804C18.0181 15.057 17.8205 14.9829 17.5243 14.8348C17.228 14.6867 15.7713 13.9698 15.4998 13.871C15.2282 13.7722 15.0307 13.7229 14.8331 14.0195C14.6355 14.3157 14.0682 14.9829 13.8952 15.1804C13.7225 15.3785 13.5496 15.4031 13.2534 15.255C12.9569 15.1063 12.0028 14.7938 10.8708 13.7846C9.99003 12.9993 9.39542 12.0296 9.22259 11.7329C9.04975 11.4367 9.20408 11.2762 9.35263 11.1285C9.48575 10.9958 9.64901 10.7826 9.79728 10.6096C9.94501 10.4366 9.99431 10.3132 10.0931 10.1156C10.192 9.91783 10.1425 9.74481 10.0685 9.59663C9.99431 9.44844 9.41859 7.98323 9.15515 7.39746Z" fill="white"/>
</g>
<defs>
<linearGradient id="paint0_linear_252_3527" x1="1150.03" y1="2310.17" x2="1150.03" y2="0.914062" gradientUnits="userSpaceOnUse">
<stop stop-color="#1FAF38"/>
<stop offset="1" stop-color="#60D669"/>
</linearGradient>
<linearGradient id="paint1_linear_252_3527" x1="1190.86" y1="2392.57" x2="1190.86" y2="0.5" gradientUnits="userSpaceOnUse">
<stop stop-color="#F9F9F9"/>
<stop offset="1" stop-color="white"/>
</linearGradient>
<clipPath id="clip0_252_3527">
<rect width="23.82" height="24" fill="white" transform="translate(0.160156 0.5)"/>
</clipPath>
</defs>
</svg>
