<svg width="35" height="25" viewBox="0 0 35 25" fill="none" xmlns="http://www.w3.org/2000/svg">
<g clip-path="url(#clip0_252_3511)">
<path d="M33.4029 4.24333C33.2071 3.51981 32.8252 2.86019 32.2952 2.33017C31.7652 1.80015 31.1056 1.41822 30.3821 1.2224C27.7333 0.5 17.0728 0.5 17.0728 0.5C17.0728 0.5 6.41173 0.521867 3.76293 1.24427C3.0394 1.44009 2.37979 1.82205 1.84979 2.35209C1.31979 2.88214 0.937893 3.54178 0.74213 4.26533C-0.0590702 8.97173 -0.36987 16.1432 0.76413 20.6613C0.959913 21.3849 1.34182 22.0445 1.87182 22.5745C2.40181 23.1045 3.06141 23.4865 3.78493 23.6823C6.43373 24.4047 17.0945 24.4047 17.0945 24.4047C17.0945 24.4047 27.7552 24.4047 30.4039 23.6823C31.1274 23.4865 31.787 23.1045 32.3171 22.5745C32.8471 22.0445 33.229 21.3849 33.4248 20.6613C34.2699 15.9483 34.5303 8.7812 33.4029 4.24333Z" fill="#FF0000"/>
<path d="M13.6797 17.5746L22.5234 12.4522L13.6797 7.32983V17.5746Z" fill="white"/>
</g>
<defs>
<clipPath id="clip0_252_3511">
<rect width="34.14" height="24" fill="white" transform="translate(0.0195312 0.5)"/>
</clipPath>
</defs>
</svg>
